<svg xmlns="http://www.w3.org/2000/svg" viewBox="0 0 64 64" role="img" aria-label="Premium real estate favicon">
  <defs>
    <linearGradient id="navy" x1="12" y1="8" x2="52" y2="58" gradientUnits="userSpaceOnUse">
      <stop stop-color="#0a2a40"/>
      <stop offset="1" stop-color="#051220"/>
    </linearGradient>
    <linearGradient id="gold" x1="12" y1="10" x2="52" y2="54" gradientUnits="userSpaceOnUse">
      <stop stop-color="#f7da97"/>
      <stop offset=".52" stop-color="#d2a249"/>
      <stop offset="1" stop-color="#9b6d24"/>
    </linearGradient>
    <filter id="shadow" x="-20%" y="-20%" width="140%" height="140%">
      <feDropShadow dx="0" dy="3" stdDeviation="3" flood-color="#000" flood-opacity=".34"/>
    </filter>
  </defs>
  <g filter="url(#shadow)">
    <path d="M10.5 49V24.5L20.3 18 32 10l11.7 8 9.8 6.5V49H10.5Z" fill="url(#navy)"/>
    <path d="M12.5 24.5 32 12l19.5 12.5-5 3.8L32 19.1 17.5 28.3l-5-3.8Z" fill="url(#gold)"/>
    <path d="M28 29h8v20h-8V29Z" fill="url(#gold)"/>
    <rect x="16.5" y="31" width="3.2" height="10" rx="1" fill="#fff"/>
    <rect x="22" y="31" width="3.2" height="10" rx="1" fill="#fff"/>
    <rect x="38.8" y="31" width="3.2" height="10" rx="1" fill="#fff"/>
    <rect x="44.3" y="31" width="3.2" height="10" rx="1" fill="#fff"/>
    <rect x="28.5" y="21.5" width="7" height="4.2" rx="1" fill="#fff"/>
    <path d="M9 53h46" stroke="#f7da97" stroke-width="4" stroke-linecap="round"/>
  </g>
</svg>
